<svg width="201" height="201" viewBox="0 0 201 201" fill="none" xmlns="http://www.w3.org/2000/svg">
<rect width="201" height="201" rx="24" fill="#6379F4"/>
<path d="M52.144 107.704H64.144V111H47.536V107.992L59.12 91.736H47.536V88.44H63.792V91.416L52.144 107.704ZM87.4188 95.352H91.3228L85.1788 111H81.6908L77.8508 100.92L74.1068 111H70.6508L64.4748 95.352H68.5708L72.5708 106.232L76.5708 95.352H79.4508L83.4508 106.296L87.4188 95.352ZM100.206 94.968C102.404 94.968 104.036 95.5013 105.102 96.568C106.169 97.6347 106.702 99.2773 106.702 101.496V111H102.894V108.6C102.532 109.432 101.956 110.083 101.166 110.552C100.398 111.021 99.5023 111.256 98.4783 111.256C97.4329 111.256 96.4836 111.043 95.6302 110.616C94.7769 110.189 94.1049 109.603 93.6143 108.856C93.1236 108.109 92.8783 107.277 92.8783 106.36C92.8783 105.208 93.1663 104.301 93.7423 103.64C94.3396 102.979 95.2996 102.499 96.6223 102.2C97.9449 101.901 99.7689 101.752 102.094 101.752H102.894V101.016C102.894 99.9493 102.66 99.1813 102.19 98.712C101.742 98.2427 100.985 98.008 99.9183 98.008C99.0863 98.008 98.2116 98.1573 97.2943 98.456C96.3983 98.7333 95.5129 99.128 94.6383 99.64L93.5182 96.888C94.3929 96.3333 95.4489 95.8747 96.6863 95.512C97.9236 95.1493 99.0969 94.968 100.206 94.968ZM99.2783 108.376C100.345 108.376 101.209 108.024 101.87 107.32C102.553 106.595 102.894 105.667 102.894 104.536V103.864H102.318C100.889 103.864 99.7796 103.928 98.9903 104.056C98.2009 104.184 97.6356 104.408 97.2943 104.728C96.9529 105.048 96.7823 105.485 96.7823 106.04C96.7823 106.723 97.0169 107.288 97.4863 107.736C97.9556 108.163 98.5529 108.376 99.2783 108.376ZM110.768 111V88.44H114.768V111H110.768ZM118.893 111V88.44H122.893V111H118.893ZM140.746 103.896H130.09C130.218 105.347 130.655 106.424 131.402 107.128C132.148 107.832 133.215 108.184 134.602 108.184C136.33 108.184 137.908 107.629 139.338 106.52L140.49 109.272C139.764 109.869 138.847 110.349 137.738 110.712C136.65 111.075 135.551 111.256 134.442 111.256C131.882 111.256 129.855 110.531 128.362 109.08C126.89 107.629 126.154 105.645 126.154 103.128C126.154 101.528 126.474 100.109 127.114 98.872C127.754 97.6347 128.65 96.6747 129.802 95.992C130.975 95.3093 132.298 94.968 133.77 94.968C135.924 94.968 137.62 95.6613 138.858 97.048C140.116 98.4347 140.746 100.344 140.746 102.776V103.896ZM133.866 97.784C132.799 97.784 131.935 98.1253 131.274 98.808C130.634 99.4907 130.239 100.472 130.09 101.752H137.322C137.279 100.451 136.959 99.4693 136.362 98.808C135.764 98.1253 134.932 97.784 133.866 97.784ZM151.799 108.248C152.268 108.248 152.759 108.216 153.271 108.152L153.079 111.128C152.439 111.192 151.852 111.224 151.319 111.224C149.121 111.224 147.5 110.723 146.455 109.72C145.409 108.696 144.887 107.181 144.887 105.176V98.36H141.879V95.352H144.887V90.68H148.887V95.352H153.015V98.36H148.887V105.112C148.887 107.203 149.857 108.248 151.799 108.248Z" fill="white"/>
</svg>
