<svg width="117" height="90" viewBox="0 0 117 90" fill="none" xmlns="http://www.w3.org/2000/svg">
<path d="M14 5.83366L14 22.167" stroke="#1EC15F" stroke-width="2" stroke-linecap="round" stroke-linejoin="round"/>
<path d="M22.1667 14.0003L14 22.167L5.83333 14.0003" stroke="#1EC15F" stroke-width="2" stroke-linecap="round" stroke-linejoin="round"/>
<path d="M1.218 52V42.13H2.366V52H1.218ZM8.06203 45.014C9.69537 45.014 10.512 45.9147 10.512 47.716V52H9.37803V47.786C9.37803 47.1513 9.25203 46.6893 9.00003 46.4C8.75736 46.1107 8.36536 45.966 7.82403 45.966C7.1987 45.966 6.69936 46.1573 6.32603 46.54C5.9527 46.9227 5.76603 47.4407 5.76603 48.094V52H4.63203V45.182H5.75203V46.302C5.97603 45.882 6.2887 45.5647 6.69003 45.35C7.09136 45.126 7.5487 45.014 8.06203 45.014ZM15.4731 52.098C14.8011 52.098 14.2177 51.9533 13.7231 51.664C13.2284 51.3747 12.8457 50.9687 12.5751 50.446C12.3137 49.914 12.1831 49.2933 12.1831 48.584C12.1831 47.8747 12.3184 47.254 12.5891 46.722C12.8691 46.1807 13.2564 45.7607 13.7511 45.462C14.2551 45.1633 14.8431 45.014 15.5151 45.014C15.9724 45.014 16.4204 45.098 16.8591 45.266C17.2977 45.4247 17.6524 45.6393 17.9231 45.91L17.5451 46.75C16.9011 46.2273 16.2477 45.966 15.5851 45.966C14.8851 45.966 14.3391 46.1947 13.9471 46.652C13.5551 47.1093 13.3591 47.7533 13.3591 48.584C13.3591 49.4053 13.5551 50.04 13.9471 50.488C14.3391 50.936 14.8851 51.16 15.5851 51.16C16.2477 51.16 16.9011 50.8987 17.5451 50.376L17.9231 51.216C17.6337 51.4867 17.2697 51.7013 16.8311 51.86C16.3924 52.0187 15.9397 52.098 15.4731 52.098ZM22.1163 52.098C21.4723 52.098 20.9029 51.9533 20.4083 51.664C19.9229 51.3747 19.5449 50.964 19.2743 50.432C19.0129 49.8907 18.8823 49.2653 18.8823 48.556C18.8823 47.8467 19.0129 47.226 19.2743 46.694C19.5449 46.1527 19.9229 45.7373 20.4083 45.448C20.9029 45.1587 21.4723 45.014 22.1163 45.014C22.7603 45.014 23.3296 45.1587 23.8243 45.448C24.3189 45.7373 24.6969 46.1527 24.9583 46.694C25.2289 47.226 25.3643 47.8467 25.3643 48.556C25.3643 49.2653 25.2289 49.8907 24.9583 50.432C24.6969 50.964 24.3189 51.3747 23.8243 51.664C23.3296 51.9533 22.7603 52.098 22.1163 52.098ZM22.1163 51.16C22.7883 51.16 23.3016 50.9407 23.6563 50.502C24.0203 50.054 24.2023 49.4053 24.2023 48.556C24.2023 47.7253 24.0203 47.086 23.6563 46.638C23.2923 46.1807 22.7789 45.952 22.1163 45.952C21.4536 45.952 20.9403 46.1807 20.5763 46.638C20.2123 47.086 20.0303 47.7253 20.0303 48.556C20.0303 49.396 20.2076 50.04 20.5623 50.488C20.9263 50.936 21.4443 51.16 22.1163 51.16ZM34.6419 45.014C36.1539 45.014 36.9099 45.9147 36.9099 47.716V52H35.7759V47.772C35.7759 47.1467 35.6639 46.6893 35.4399 46.4C35.2252 46.1107 34.8752 45.966 34.3899 45.966C33.8206 45.966 33.3726 46.1573 33.0459 46.54C32.7192 46.9227 32.5559 47.4453 32.5559 48.108V52H31.4219V47.772C31.4219 47.1373 31.3099 46.68 31.0859 46.4C30.8619 46.1107 30.5072 45.966 30.0219 45.966C29.4526 45.966 29.0046 46.1573 28.6779 46.54C28.3512 46.9227 28.1879 47.4453 28.1879 48.108V52H27.0539V45.182H28.1739V46.26C28.3792 45.8587 28.6639 45.5507 29.0279 45.336C29.3919 45.1213 29.8119 45.014 30.2879 45.014C31.3426 45.014 32.0379 45.462 32.3739 46.358C32.5699 45.938 32.8686 45.6113 33.2699 45.378C33.6712 45.1353 34.1286 45.014 34.6419 45.014ZM44.6878 48.766H39.7038C39.7411 49.5593 39.9558 50.1613 40.3478 50.572C40.7398 50.9733 41.2951 51.174 42.0138 51.174C42.8071 51.174 43.5351 50.9033 44.1978 50.362L44.5758 51.188C44.2771 51.468 43.8944 51.692 43.4278 51.86C42.9611 52.0187 42.4851 52.098 41.9998 52.098C40.9358 52.098 40.0958 51.7853 39.4798 51.16C38.8731 50.5347 38.5698 49.6713 38.5698 48.57C38.5698 47.87 38.7051 47.254 38.9758 46.722C39.2464 46.1807 39.6244 45.7607 40.1098 45.462C40.6044 45.1633 41.1644 45.014 41.7898 45.014C42.6951 45.014 43.4044 45.3127 43.9178 45.91C44.4311 46.498 44.6878 47.31 44.6878 48.346V48.766ZM41.8038 45.896C41.2064 45.896 40.7258 46.0827 40.3618 46.456C40.0071 46.8293 39.7971 47.3567 39.7318 48.038H43.6938C43.6751 47.3473 43.5024 46.82 43.1758 46.456C42.8491 46.0827 42.3918 45.896 41.8038 45.896Z" fill="#6A6A6A"/>
<path d="M12.006 83H9.486L7.308 78.95C7.104 78.566 6.852 78.296 6.552 78.14C6.252 77.984 5.874 77.906 5.418 77.906H3.654V83H1.368V70.31H6.984C8.424 70.31 9.516 70.634 10.26 71.282C11.016 71.918 11.394 72.842 11.394 74.054C11.394 75.026 11.118 75.83 10.566 76.466C10.026 77.09 9.258 77.498 8.262 77.69C8.934 77.87 9.474 78.344 9.882 79.112L12.006 83ZM6.66 76.124C7.536 76.124 8.178 75.962 8.586 75.638C8.994 75.302 9.198 74.792 9.198 74.108C9.198 73.412 8.994 72.908 8.586 72.596C8.178 72.272 7.536 72.11 6.66 72.11H3.636V76.124H6.66ZM18.7436 73.982C19.4996 73.982 20.1716 74.174 20.7596 74.558C21.3596 74.942 21.8216 75.488 22.1456 76.196C22.4816 76.892 22.6496 77.696 22.6496 78.608C22.6496 79.52 22.4816 80.318 22.1456 81.002C21.8216 81.686 21.3656 82.214 20.7776 82.586C20.1896 82.958 19.5116 83.144 18.7436 83.144C18.1196 83.144 17.5616 83.012 17.0696 82.748C16.5776 82.484 16.1996 82.118 15.9356 81.65V86.24H13.6856V74.198H15.8996V75.53C16.1636 75.038 16.5416 74.66 17.0336 74.396C17.5376 74.12 18.1076 73.982 18.7436 73.982ZM18.1496 81.398C18.8576 81.398 19.4096 81.158 19.8056 80.678C20.2016 80.186 20.3996 79.496 20.3996 78.608C20.3996 77.696 20.2016 76.988 19.8056 76.484C19.4096 75.98 18.8576 75.728 18.1496 75.728C17.4296 75.728 16.8716 75.974 16.4756 76.466C16.0916 76.958 15.8996 77.66 15.8996 78.572C15.8996 79.472 16.0916 80.168 16.4756 80.66C16.8716 81.152 17.4296 81.398 18.1496 81.398ZM33.1722 81.128V83H24.6402V81.29L28.9602 76.646C29.4642 76.094 29.8302 75.59 30.0582 75.134C30.2982 74.666 30.4182 74.204 30.4182 73.748C30.4182 73.172 30.2502 72.74 29.9142 72.452C29.5902 72.152 29.1102 72.002 28.4742 72.002C27.3342 72.002 26.1882 72.44 25.0362 73.316L24.2622 71.624C24.7662 71.18 25.4082 70.826 26.1882 70.562C26.9802 70.286 27.7722 70.148 28.5642 70.148C29.8362 70.148 30.8442 70.46 31.5882 71.084C32.3322 71.708 32.7042 72.548 32.7042 73.604C32.7042 74.336 32.5482 75.026 32.2362 75.674C31.9242 76.31 31.3962 77.024 30.6522 77.816L27.5382 81.128H33.1722ZM35.1087 80.516H37.6287V83H35.1087V80.516ZM45.7296 81.128H48.4836V83H40.6536V81.128H43.4076V72.956L41.2296 74.27L40.3116 72.578L44.0736 70.31H45.7296V81.128ZM59.2405 81.128V83H50.7085V81.29L55.0285 76.646C55.5325 76.094 55.8985 75.59 56.1265 75.134C56.3665 74.666 56.4865 74.204 56.4865 73.748C56.4865 73.172 56.3185 72.74 55.9825 72.452C55.6585 72.152 55.1785 72.002 54.5425 72.002C53.4025 72.002 52.2565 72.44 51.1045 73.316L50.3305 71.624C50.8345 71.18 51.4765 70.826 52.2565 70.562C53.0485 70.286 53.8405 70.148 54.6325 70.148C55.9045 70.148 56.9125 70.46 57.6565 71.084C58.4005 71.708 58.7725 72.548 58.7725 73.604C58.7725 74.336 58.6165 75.026 58.3045 75.674C57.9925 76.31 57.4645 77.024 56.7205 77.816L53.6065 81.128H59.2405ZM65.6051 83.162C64.1051 83.162 62.9591 82.61 62.1671 81.506C61.3751 80.39 60.9791 78.77 60.9791 76.646C60.9791 74.546 61.3751 72.944 62.1671 71.84C62.9591 70.736 64.1051 70.184 65.6051 70.184C67.1051 70.184 68.2511 70.736 69.0431 71.84C69.8351 72.944 70.2311 74.546 70.2311 76.646C70.2311 78.758 69.8351 80.372 69.0431 81.488C68.2511 82.604 67.1051 83.162 65.6051 83.162ZM65.6051 81.344C66.4211 81.344 67.0151 80.972 67.3871 80.228C67.7591 79.472 67.9451 78.278 67.9451 76.646C67.9451 75.026 67.7591 73.85 67.3871 73.118C67.0151 72.374 66.4211 72.002 65.6051 72.002C64.7891 72.002 64.1951 72.374 63.8231 73.118C63.4511 73.85 63.2651 75.026 63.2651 76.646C63.2651 78.278 63.4511 79.472 63.8231 80.228C64.1951 80.972 64.7891 81.344 65.6051 81.344ZM71.97 80.516H74.49V83H71.97V80.516ZM80.8629 83.162C79.3629 83.162 78.2169 82.61 77.4249 81.506C76.6329 80.39 76.2369 78.77 76.2369 76.646C76.2369 74.546 76.6329 72.944 77.4249 71.84C78.2169 70.736 79.3629 70.184 80.8629 70.184C82.3629 70.184 83.5089 70.736 84.3009 71.84C85.0929 72.944 85.4889 74.546 85.4889 76.646C85.4889 78.758 85.0929 80.372 84.3009 81.488C83.5089 82.604 82.3629 83.162 80.8629 83.162ZM80.8629 81.344C81.6789 81.344 82.2729 80.972 82.6449 80.228C83.0169 79.472 83.2029 78.278 83.2029 76.646C83.2029 75.026 83.0169 73.85 82.6449 73.118C82.2729 72.374 81.6789 72.002 80.8629 72.002C80.0469 72.002 79.4529 72.374 79.0809 73.118C78.7089 73.85 78.5229 75.026 78.5229 76.646C78.5229 78.278 78.7089 79.472 79.0809 80.228C79.4529 80.972 80.0469 81.344 80.8629 81.344ZM91.6559 83.162C90.1559 83.162 89.0099 82.61 88.2179 81.506C87.4259 80.39 87.0299 78.77 87.0299 76.646C87.0299 74.546 87.4259 72.944 88.2179 71.84C89.0099 70.736 90.1559 70.184 91.6559 70.184C93.1559 70.184 94.3019 70.736 95.0939 71.84C95.8859 72.944 96.2819 74.546 96.2819 76.646C96.2819 78.758 95.8859 80.372 95.0939 81.488C94.3019 82.604 93.1559 83.162 91.6559 83.162ZM91.6559 81.344C92.4719 81.344 93.0659 80.972 93.4379 80.228C93.8099 79.472 93.9959 78.278 93.9959 76.646C93.9959 75.026 93.8099 73.85 93.4379 73.118C93.0659 72.374 92.4719 72.002 91.6559 72.002C90.8399 72.002 90.2459 72.374 89.8739 73.118C89.5019 73.85 89.3159 75.026 89.3159 76.646C89.3159 78.278 89.5019 79.472 89.8739 80.228C90.2459 80.972 90.8399 81.344 91.6559 81.344ZM102.449 83.162C100.949 83.162 99.8028 82.61 99.0108 81.506C98.2188 80.39 97.8228 78.77 97.8228 76.646C97.8228 74.546 98.2188 72.944 99.0108 71.84C99.8028 70.736 100.949 70.184 102.449 70.184C103.949 70.184 105.095 70.736 105.887 71.84C106.679 72.944 107.075 74.546 107.075 76.646C107.075 78.758 106.679 80.372 105.887 81.488C105.095 82.604 103.949 83.162 102.449 83.162ZM102.449 81.344C103.265 81.344 103.859 80.972 104.231 80.228C104.603 79.472 104.789 78.278 104.789 76.646C104.789 75.026 104.603 73.85 104.231 73.118C103.859 72.374 103.265 72.002 102.449 72.002C101.633 72.002 101.039 72.374 100.667 73.118C100.295 73.85 100.109 75.026 100.109 76.646C100.109 78.278 100.295 79.472 100.667 80.228C101.039 80.972 101.633 81.344 102.449 81.344Z" fill="#3A3D42"/>
</svg>
