<svg width="117" height="90" viewBox="0 0 117 90" fill="none" xmlns="http://www.w3.org/2000/svg">
<path d="M14 22.1663L14 5.83301" stroke="#FF5B37" stroke-width="2" stroke-linecap="round" stroke-linejoin="round"/>
<path d="M5.83334 13.9997L14 5.83301L22.1667 13.9997" stroke="#FF5B37" stroke-width="2" stroke-linecap="round" stroke-linejoin="round"/>
<path d="M1.218 52V42.13H7.462V43.082H2.352V46.512H7.182V47.464H2.352V51.048H7.462V52H1.218ZM12.4464 48.486L15.2744 52H13.9024L11.7744 49.34L9.66044 52H8.27444L11.1024 48.486L8.44244 45.182H9.81444L11.7744 47.66L13.7344 45.182H15.1204L12.4464 48.486ZM19.8745 45.014C20.4719 45.014 20.9992 45.1633 21.4565 45.462C21.9139 45.7607 22.2685 46.1807 22.5205 46.722C22.7725 47.254 22.8985 47.8747 22.8985 48.584C22.8985 49.2933 22.7725 49.914 22.5205 50.446C22.2685 50.9687 21.9139 51.3747 21.4565 51.664C21.0085 51.9533 20.4812 52.098 19.8745 52.098C19.3425 52.098 18.8759 51.9813 18.4745 51.748C18.0825 51.5147 17.7839 51.1833 17.5785 50.754V54.52H16.4445V45.182H17.5785V46.358C17.7839 45.9287 18.0825 45.5973 18.4745 45.364C18.8759 45.1307 19.3425 45.014 19.8745 45.014ZM19.6505 51.16C20.3132 51.16 20.8265 50.936 21.1905 50.488C21.5545 50.04 21.7365 49.4053 21.7365 48.584C21.7365 47.7627 21.5545 47.1233 21.1905 46.666C20.8265 46.1993 20.3132 45.966 19.6505 45.966C18.9879 45.966 18.4745 46.19 18.1105 46.638C17.7559 47.086 17.5785 47.7253 17.5785 48.556C17.5785 49.3867 17.7559 50.0307 18.1105 50.488C18.4745 50.936 18.9879 51.16 19.6505 51.16ZM30.305 48.766H25.321C25.3583 49.5593 25.573 50.1613 25.965 50.572C26.357 50.9733 26.9123 51.174 27.631 51.174C28.4243 51.174 29.1523 50.9033 29.815 50.362L30.193 51.188C29.8943 51.468 29.5116 51.692 29.045 51.86C28.5783 52.0187 28.1023 52.098 27.617 52.098C26.553 52.098 25.713 51.7853 25.097 51.16C24.4903 50.5347 24.187 49.6713 24.187 48.57C24.187 47.87 24.3223 47.254 24.593 46.722C24.8636 46.1807 25.2416 45.7607 25.727 45.462C26.2216 45.1633 26.7816 45.014 27.407 45.014C28.3123 45.014 29.0216 45.3127 29.535 45.91C30.0483 46.498 30.305 47.31 30.305 48.346V48.766ZM27.421 45.896C26.8236 45.896 26.343 46.0827 25.979 46.456C25.6243 46.8293 25.4143 47.3567 25.349 48.038H29.311C29.2923 47.3473 29.1196 46.82 28.793 46.456C28.4663 46.0827 28.009 45.896 27.421 45.896ZM35.4058 45.014C37.0391 45.014 37.8558 45.9147 37.8558 47.716V52H36.7218V47.786C36.7218 47.1513 36.5958 46.6893 36.3438 46.4C36.1011 46.1107 35.7091 45.966 35.1678 45.966C34.5424 45.966 34.0431 46.1573 33.6698 46.54C33.2964 46.9227 33.1098 47.4407 33.1098 48.094V52H31.9758V45.182H33.0958V46.302C33.3198 45.882 33.6324 45.5647 34.0338 45.35C34.4351 45.126 34.8924 45.014 35.4058 45.014ZM42.2428 52.098C41.0948 52.098 40.1848 51.804 39.5128 51.216L39.8908 50.376C40.2548 50.6653 40.6235 50.8753 40.9968 51.006C41.3795 51.1273 41.8088 51.188 42.2848 51.188C42.7888 51.188 43.1715 51.104 43.4328 50.936C43.7035 50.7587 43.8388 50.5067 43.8388 50.18C43.8388 49.9093 43.7501 49.6947 43.5728 49.536C43.3955 49.3773 43.1015 49.2513 42.6908 49.158L41.5428 48.892C40.9641 48.7613 40.5208 48.5373 40.2128 48.22C39.9048 47.9027 39.7508 47.5107 39.7508 47.044C39.7508 46.4373 39.9888 45.9473 40.4648 45.574C40.9408 45.2007 41.5755 45.014 42.3688 45.014C42.8448 45.014 43.2975 45.0933 43.7268 45.252C44.1561 45.4013 44.5155 45.6207 44.8048 45.91L44.4268 46.736C43.8015 46.204 43.1155 45.938 42.3688 45.938C41.8928 45.938 41.5195 46.0313 41.2488 46.218C40.9875 46.3953 40.8568 46.6473 40.8568 46.974C40.8568 47.2447 40.9361 47.464 41.0948 47.632C41.2628 47.7907 41.5288 47.912 41.8928 47.996L43.0548 48.276C43.6895 48.4253 44.1608 48.654 44.4688 48.962C44.7768 49.2607 44.9308 49.6527 44.9308 50.138C44.9308 50.7353 44.6881 51.2113 44.2028 51.566C43.7268 51.9207 43.0735 52.098 42.2428 52.098ZM52.3714 48.766H47.3874C47.4247 49.5593 47.6394 50.1613 48.0314 50.572C48.4234 50.9733 48.9787 51.174 49.6974 51.174C50.4907 51.174 51.2187 50.9033 51.8814 50.362L52.2594 51.188C51.9607 51.468 51.578 51.692 51.1114 51.86C50.6447 52.0187 50.1687 52.098 49.6834 52.098C48.6194 52.098 47.7794 51.7853 47.1634 51.16C46.5567 50.5347 46.2534 49.6713 46.2534 48.57C46.2534 47.87 46.3887 47.254 46.6594 46.722C46.93 46.1807 47.308 45.7607 47.7934 45.462C48.288 45.1633 48.848 45.014 49.4734 45.014C50.3787 45.014 51.088 45.3127 51.6014 45.91C52.1147 46.498 52.3714 47.31 52.3714 48.346V48.766ZM49.4874 45.896C48.89 45.896 48.4094 46.0827 48.0454 46.456C47.6907 46.8293 47.4807 47.3567 47.4154 48.038H51.3774C51.3587 47.3473 51.186 46.82 50.8594 46.456C50.5327 46.0827 50.0754 45.896 49.4874 45.896Z" fill="#6A6A6A"/>
<path d="M12.006 83H9.486L7.308 78.95C7.104 78.566 6.852 78.296 6.552 78.14C6.252 77.984 5.874 77.906 5.418 77.906H3.654V83H1.368V70.31H6.984C8.424 70.31 9.516 70.634 10.26 71.282C11.016 71.918 11.394 72.842 11.394 74.054C11.394 75.026 11.118 75.83 10.566 76.466C10.026 77.09 9.258 77.498 8.262 77.69C8.934 77.87 9.474 78.344 9.882 79.112L12.006 83ZM6.66 76.124C7.536 76.124 8.178 75.962 8.586 75.638C8.994 75.302 9.198 74.792 9.198 74.108C9.198 73.412 8.994 72.908 8.586 72.596C8.178 72.272 7.536 72.11 6.66 72.11H3.636V76.124H6.66ZM18.7436 73.982C19.4996 73.982 20.1716 74.174 20.7596 74.558C21.3596 74.942 21.8216 75.488 22.1456 76.196C22.4816 76.892 22.6496 77.696 22.6496 78.608C22.6496 79.52 22.4816 80.318 22.1456 81.002C21.8216 81.686 21.3656 82.214 20.7776 82.586C20.1896 82.958 19.5116 83.144 18.7436 83.144C18.1196 83.144 17.5616 83.012 17.0696 82.748C16.5776 82.484 16.1996 82.118 15.9356 81.65V86.24H13.6856V74.198H15.8996V75.53C16.1636 75.038 16.5416 74.66 17.0336 74.396C17.5376 74.12 18.1076 73.982 18.7436 73.982ZM18.1496 81.398C18.8576 81.398 19.4096 81.158 19.8056 80.678C20.2016 80.186 20.3996 79.496 20.3996 78.608C20.3996 77.696 20.2016 76.988 19.8056 76.484C19.4096 75.98 18.8576 75.728 18.1496 75.728C17.4296 75.728 16.8716 75.974 16.4756 76.466C16.0916 76.958 15.8996 77.66 15.8996 78.572C15.8996 79.472 16.0916 80.168 16.4756 80.66C16.8716 81.152 17.4296 81.398 18.1496 81.398ZM30.4542 81.128H33.2082V83H25.3782V81.128H28.1322V72.956L25.9542 74.27L25.0362 72.578L28.7982 70.31H30.4542V81.128ZM35.0911 80.516H37.6111V83H35.0911V80.516ZM44.668 74.882C45.46 74.882 46.156 75.056 46.756 75.404C47.368 75.74 47.836 76.214 48.16 76.826C48.496 77.438 48.664 78.14 48.664 78.932C48.664 79.772 48.472 80.51 48.088 81.146C47.704 81.782 47.158 82.274 46.45 82.622C45.754 82.97 44.932 83.144 43.984 83.144C43.192 83.144 42.406 83.012 41.626 82.748C40.858 82.472 40.222 82.112 39.718 81.668L40.492 79.976C41.644 80.852 42.82 81.29 44.02 81.29C44.812 81.29 45.418 81.092 45.838 80.696C46.258 80.3 46.468 79.736 46.468 79.004C46.468 78.296 46.252 77.738 45.82 77.33C45.4 76.91 44.824 76.7 44.092 76.7C43.6 76.7 43.132 76.796 42.688 76.988C42.256 77.168 41.866 77.432 41.518 77.78H40.132V70.31H48.088V72.11H42.4V75.53C43.012 75.098 43.768 74.882 44.668 74.882ZM55.569 74.864C56.313 74.864 56.979 75.038 57.567 75.386C58.155 75.722 58.611 76.202 58.935 76.826C59.271 77.438 59.439 78.14 59.439 78.932C59.439 79.748 59.259 80.48 58.899 81.128C58.539 81.764 58.035 82.262 57.387 82.622C56.739 82.982 56.007 83.162 55.191 83.162C53.583 83.162 52.341 82.622 51.465 81.542C50.601 80.45 50.169 78.896 50.169 76.88C50.169 75.488 50.373 74.288 50.781 73.28C51.201 72.26 51.801 71.486 52.581 70.958C53.361 70.418 54.285 70.148 55.353 70.148C56.109 70.148 56.847 70.28 57.567 70.544C58.287 70.796 58.911 71.156 59.439 71.624L58.665 73.316C57.549 72.44 56.475 72.002 55.443 72.002C54.519 72.002 53.799 72.398 53.283 73.19C52.767 73.97 52.497 75.104 52.473 76.592C52.749 76.052 53.163 75.632 53.715 75.332C54.267 75.02 54.885 74.864 55.569 74.864ZM55.083 81.326C55.743 81.326 56.265 81.116 56.649 80.696C57.045 80.276 57.243 79.712 57.243 79.004C57.243 78.308 57.045 77.75 56.649 77.33C56.253 76.91 55.725 76.7 55.065 76.7C54.405 76.7 53.865 76.916 53.445 77.348C53.037 77.768 52.833 78.32 52.833 79.004C52.833 79.7 53.037 80.264 53.445 80.696C53.865 81.116 54.411 81.326 55.083 81.326ZM65.5699 83.162C64.0699 83.162 62.9239 82.61 62.1319 81.506C61.3399 80.39 60.9439 78.77 60.9439 76.646C60.9439 74.546 61.3399 72.944 62.1319 71.84C62.9239 70.736 64.0699 70.184 65.5699 70.184C67.0699 70.184 68.2159 70.736 69.0079 71.84C69.7999 72.944 70.1959 74.546 70.1959 76.646C70.1959 78.758 69.7999 80.372 69.0079 81.488C68.2159 82.604 67.0699 83.162 65.5699 83.162ZM65.5699 81.344C66.3859 81.344 66.9799 80.972 67.3519 80.228C67.7239 79.472 67.9099 78.278 67.9099 76.646C67.9099 75.026 67.7239 73.85 67.3519 73.118C66.9799 72.374 66.3859 72.002 65.5699 72.002C64.7539 72.002 64.1599 72.374 63.7879 73.118C63.4159 73.85 63.2299 75.026 63.2299 76.646C63.2299 78.278 63.4159 79.472 63.7879 80.228C64.1599 80.972 64.7539 81.344 65.5699 81.344ZM71.9349 80.516H74.4549V83H71.9349V80.516ZM80.8277 83.162C79.3277 83.162 78.1817 82.61 77.3897 81.506C76.5977 80.39 76.2017 78.77 76.2017 76.646C76.2017 74.546 76.5977 72.944 77.3897 71.84C78.1817 70.736 79.3277 70.184 80.8277 70.184C82.3277 70.184 83.4737 70.736 84.2657 71.84C85.0577 72.944 85.4537 74.546 85.4537 76.646C85.4537 78.758 85.0577 80.372 84.2657 81.488C83.4737 82.604 82.3277 83.162 80.8277 83.162ZM80.8277 81.344C81.6437 81.344 82.2377 80.972 82.6097 80.228C82.9817 79.472 83.1677 78.278 83.1677 76.646C83.1677 75.026 82.9817 73.85 82.6097 73.118C82.2377 72.374 81.6437 72.002 80.8277 72.002C80.0117 72.002 79.4177 72.374 79.0457 73.118C78.6737 73.85 78.4877 75.026 78.4877 76.646C78.4877 78.278 78.6737 79.472 79.0457 80.228C79.4177 80.972 80.0117 81.344 80.8277 81.344ZM91.6207 83.162C90.1207 83.162 88.9747 82.61 88.1827 81.506C87.3907 80.39 86.9947 78.77 86.9947 76.646C86.9947 74.546 87.3907 72.944 88.1827 71.84C88.9747 70.736 90.1207 70.184 91.6207 70.184C93.1207 70.184 94.2667 70.736 95.0587 71.84C95.8507 72.944 96.2467 74.546 96.2467 76.646C96.2467 78.758 95.8507 80.372 95.0587 81.488C94.2667 82.604 93.1207 83.162 91.6207 83.162ZM91.6207 81.344C92.4367 81.344 93.0307 80.972 93.4027 80.228C93.7747 79.472 93.9607 78.278 93.9607 76.646C93.9607 75.026 93.7747 73.85 93.4027 73.118C93.0307 72.374 92.4367 72.002 91.6207 72.002C90.8047 72.002 90.2107 72.374 89.8387 73.118C89.4667 73.85 89.2807 75.026 89.2807 76.646C89.2807 78.278 89.4667 79.472 89.8387 80.228C90.2107 80.972 90.8047 81.344 91.6207 81.344ZM102.414 83.162C100.914 83.162 99.7677 82.61 98.9757 81.506C98.1837 80.39 97.7877 78.77 97.7877 76.646C97.7877 74.546 98.1837 72.944 98.9757 71.84C99.7677 70.736 100.914 70.184 102.414 70.184C103.914 70.184 105.06 70.736 105.852 71.84C106.644 72.944 107.04 74.546 107.04 76.646C107.04 78.758 106.644 80.372 105.852 81.488C105.06 82.604 103.914 83.162 102.414 83.162ZM102.414 81.344C103.23 81.344 103.824 80.972 104.196 80.228C104.568 79.472 104.754 78.278 104.754 76.646C104.754 75.026 104.568 73.85 104.196 73.118C103.824 72.374 103.23 72.002 102.414 72.002C101.598 72.002 101.004 72.374 100.632 73.118C100.26 73.85 100.074 75.026 100.074 76.646C100.074 78.278 100.26 79.472 100.632 80.228C101.004 80.972 101.598 81.344 102.414 81.344Z" fill="#3A3D42"/>
</svg>
